# xmcd
#
# Track frame offsets:
#	150
#	21317
#	37265
#	54635
#	74197
#	94707
#	114547
#	134767
#	152070
#	171007
#	186295
#	202607
#	219530
#	234097
#
# Disc length: 3370 seconds
#
# Revision: 4
# Processed by: cddbd v1.5.1PL0 Copyright (c) Steve Scherf et al.
# Submitted via: MusicManager 7.2.0.0 
#
DISCID=cc0d280e
DTITLE=Gladys Knight and The Pips - The Very Best of Gladys Knight and the Pips
DYEAR=1988
DGENRE=Blues
TTITLE0=Midnight Train To Georgia
TTITLE1=I've Got To Use My Imagination
TTITLE2=So Sad The Song
TTITLE3=On And On
TTITLE4=The Way We Were (Try To Remember)
TTITLE5=I Can See Clearly Now
TTITLE6=Where Peaceful Waters Flow
TTITLE7=Best Thing That Ever Happened To Me
TTITLE8=The Need To Be
TTITLE9=I Feel A Song (In My Heart)
TTITLE10=The Going Ups And Coming Downs
TTITLE11=Storms Of Troubled Times
TTITLE12=Baby Don't Change Your Mind
TTITLE13=Sorry Doesn't Always Make It Right
EXTD=
EXTT0=
EXTT1=
EXTT2=
EXTT3=
EXTT4=
EXTT5=
EXTT6=
EXTT7=
EXTT8=
EXTT9=
EXTT10=
EXTT11=
EXTT12=
EXTT13=
PLAYORDER=
